<?xml version="1.0" standalone="no"?><!-- Generator: Gravit.io --><svg xmlns="http://www.w3.org/2000/svg" xmlns:xlink="http://www.w3.org/1999/xlink" style="isolation:isolate" viewBox="-0.001 2.824 512 506.352" width="512" height="506.352"><g id="arrow-down"><g id="Group"><path d=" M 501.497 227.831 C 515.501 241.829 515.501 264.524 501.497 278.528 L 281.348 498.684 C 274.348 505.669 265.173 509.176 255.998 509.176 C 246.823 509.176 237.649 505.683 230.652 498.684 L 10.503 278.528 C -3.502 264.524 -3.502 241.829 10.503 227.831 C 24.505 213.83 47.206 213.83 61.204 227.831 L 255.997 422.624 L 450.791 227.831 C 464.789 213.837 487.498 213.837 501.497 227.831 Z  M 230.652 284.182 C 237.648 291.167 246.823 294.674 255.998 294.674 C 265.173 294.674 274.348 291.167 281.348 284.182 L 501.497 64.033 C 515.501 50.026 515.501 27.324 501.497 13.322 C 487.492 -0.675 464.789 -0.675 450.792 13.322 L 255.998 208.116 L 61.205 13.322 C 47.207 -0.675 24.506 -0.675 10.505 13.322 C -3.501 27.324 -3.501 50.026 10.505 64.033 L 230.652 284.182 Z " fill="rgb(16,91,177)"/></g></g></svg>