<?xml version="1.0" standalone="no"?><!-- Generator: Gravit.io --><svg xmlns="http://www.w3.org/2000/svg" xmlns:xlink="http://www.w3.org/1999/xlink" style="isolation:isolate" viewBox="207 23 512.001 506.352" width="512.001" height="506.352"><g id="arrow-down"><g id="Group"><path d=" M 708.498 248.007 C 722.502 262.005 722.502 284.7 708.498 298.704 L 488.349 518.86 C 481.349 525.845 472.174 529.352 462.999 529.352 C 453.824 529.352 444.65 525.859 437.653 518.86 L 217.504 298.704 C 203.499 284.7 203.499 262.005 217.504 248.007 C 231.506 234.006 254.207 234.006 268.205 248.007 L 462.998 442.8 L 657.792 248.007 C 671.79 234.013 694.499 234.013 708.498 248.007 Z  M 437.653 304.358 C 444.649 311.343 453.824 314.85 462.999 314.85 C 472.174 314.85 481.349 311.343 488.349 304.358 L 708.498 84.209 C 722.502 70.202 722.502 47.5 708.498 33.498 C 694.493 19.501 671.79 19.501 657.793 33.498 L 462.999 228.292 L 268.206 33.498 C 254.208 19.501 231.507 19.501 217.506 33.498 C 203.5 47.5 203.5 70.202 217.506 84.209 L 437.653 304.358 Z " fill="rgb(21,125,242)"/></g></g></svg>