<?xml version="1.0" encoding="iso-8859-1"?>
<!-- Generator: Adobe Illustrator 19.0.0, SVG Export Plug-In . SVG Version: 6.00 Build 0)  -->
<svg version="1.1" id="Capa_1" xmlns="http://www.w3.org/2000/svg" xmlns:xlink="http://www.w3.org/1999/xlink" x="0px" y="0px"
	 viewBox="0 0 512.028 512.028" style="enable-background:new 0 0 512.028 512.028;" xml:space="preserve">
<path style="fill:#FFA000;" d="M506.296,451.758c-42.464-35.584-56.448-176.864-58.272-228.32c-0.32-8.608-7.36-15.424-16-15.424
	h-352c-8.608,0-15.68,6.816-16,15.424C62.2,274.862,48.184,416.142,5.72,451.758c-5.152,4.32-7.072,11.392-4.736,17.728
	c2.304,6.304,8.32,10.528,15.04,10.528h480c6.72,0,12.736-4.224,15.04-10.528C513.368,463.182,511.448,456.078,506.296,451.758z"/>
<g>
	<path style="fill:#455A64;" d="M85.656,195.918c-7.008-2.624-14.08-3.904-21.632-3.904c-35.296,0-64,28.704-64,64s28.704,64,64,64
		c7.488,0,14.56-1.28,21.568-3.872c6.272-2.336,10.432-8.32,10.432-15.008v-90.24C96.024,204.206,91.896,198.254,85.656,195.918z"/>
	<path style="fill:#455A64;" d="M448.024,192.014c-7.552,0-14.624,1.28-21.632,3.904c-6.24,2.336-10.368,8.288-10.368,14.976v90.24
		c0,6.688,4.16,12.672,10.432,15.008c7.008,2.592,14.08,3.872,21.568,3.872c35.296,0,64-28.704,64-64
		S483.32,192.014,448.024,192.014z"/>
</g>
<path style="fill:#FFA000;" d="M448.024,192.014v12.8c-75.84-8-147.84-30.4-176-51.2c-31.36,26.24-92.16,54.4-208,54.4v-16
	c0-105.92,86.08-192,192-192S448.024,86.094,448.024,192.014z"/>
<path style="fill:#FFECB3;" d="M448.024,204.814v115.2c0,105.92-86.08,192-192,192s-192-86.08-192-192v-112
	c115.84,0,176.64-28.16,208-54.4C300.184,174.414,372.184,196.814,448.024,204.814z"/>
<g>
	<path style="fill:#455A64;" d="M368.024,304.014c-8.832,0-16-7.168-16-16s-7.2-16-16-16s-16,7.168-16,16s-7.168,16-16,16
		s-16-7.168-16-16c0-26.464,21.536-48,48-48s48,21.536,48,48C384.024,296.846,376.856,304.014,368.024,304.014z"/>
	<path style="fill:#455A64;" d="M208.024,304.014c-8.832,0-16-7.168-16-16s-7.168-16-16-16s-16,7.168-16,16s-7.168,16-16,16
		s-16-7.168-16-16c0-26.464,21.536-48,48-48s48,21.536,48,48C224.024,296.846,216.856,304.014,208.024,304.014z"/>
	<path style="fill:#455A64;" d="M428.76,416.014H288.024c-8.832,0-16-7.168-16-16s7.168-16,16-16H428.76c8.832,0,16,7.168,16,16
		S437.624,416.014,428.76,416.014z"/>
	<circle style="fill:#455A64;" cx="256.024" cy="400.014" r="48"/>
</g>
<g>
</g>
<g>
</g>
<g>
</g>
<g>
</g>
<g>
</g>
<g>
</g>
<g>
</g>
<g>
</g>
<g>
</g>
<g>
</g>
<g>
</g>
<g>
</g>
<g>
</g>
<g>
</g>
<g>
</g>
</svg>
