<?xml version="1.0" standalone="no"?><!-- Generator: Gravit.io --><svg xmlns="http://www.w3.org/2000/svg" xmlns:xlink="http://www.w3.org/1999/xlink" style="isolation:isolate" viewBox="0.959 0.121 65.26 84.468" width="65.26" height="84.468"><g id="howitworks_icon_3"><path d=" M 10.328 25.84 C 10.328 25.177 10.865 24.64 11.528 24.64 L 51.138 24.64 C 51.801 24.64 52.338 25.177 52.338 25.84 C 52.338 26.503 51.801 27.04 51.138 27.04 L 11.528 27.04 C 10.865 27.04 10.328 26.503 10.328 25.84 Z  M 10.328 20.229 C 10.328 19.566 10.865 19.029 11.528 19.029 L 51.138 19.029 C 51.801 19.029 52.338 19.566 52.338 20.229 C 52.338 20.892 51.801 21.429 51.138 21.429 L 11.528 21.429 C 10.865 21.429 10.328 20.892 10.328 20.229 Z  M 10.328 31.319 C 10.328 30.656 10.865 30.119 11.528 30.119 L 51.138 30.119 C 51.801 30.119 52.338 30.656 52.338 31.319 C 52.338 31.982 51.801 32.519 51.138 32.519 L 11.528 32.519 C 10.865 32.519 10.328 31.982 10.328 31.319 Z  M 10.203 36.789 C 10.203 36.471 10.329 36.166 10.554 35.94 C 10.78 35.715 11.085 35.589 11.403 35.589 L 36.541 35.589 C 37.204 35.589 37.741 36.126 37.741 36.789 C 37.741 37.452 37.204 37.989 36.541 37.989 L 11.404 37.989 C 11.086 37.989 10.781 37.863 10.555 37.638 C 10.33 37.412 10.204 37.107 10.204 36.789 L 10.203 36.789 Z  M 9.926 51.939 C 9.926 51.621 10.052 51.316 10.277 51.09 C 10.503 50.865 10.808 50.739 11.126 50.739 L 26.69 50.739 C 27.353 50.739 27.89 51.276 27.89 51.939 C 27.89 52.602 27.353 53.139 26.69 53.139 L 11.126 53.139 C 10.808 53.139 10.503 53.013 10.277 52.788 C 10.052 52.562 9.926 52.257 9.926 51.939 Z  M 9.926 57.361 C 9.926 57.043 10.052 56.738 10.277 56.512 C 10.503 56.287 10.808 56.161 11.126 56.161 L 26.69 56.161 C 27.353 56.161 27.89 56.698 27.89 57.361 C 27.89 58.024 27.353 58.561 26.69 58.561 L 11.126 58.561 C 10.464 58.561 9.926 58.024 9.926 57.361 Z  M 9.926 62.841 C 9.926 62.523 10.052 62.217 10.277 61.992 C 10.502 61.767 10.808 61.64 11.126 61.64 L 21.598 61.64 C 22.261 61.64 22.798 62.177 22.798 62.84 C 22.798 63.503 22.261 64.04 21.598 64.04 L 11.126 64.04 C 10.808 64.04 10.503 63.914 10.277 63.689 C 10.052 63.463 9.926 63.158 9.926 62.84 L 9.926 62.841 Z  M 64.55 0.59 L 7.14 0.59 C 6.822 0.59 6.516 0.716 6.291 0.941 C 6.066 1.166 5.939 1.472 5.939 1.79 L 5.939 5.101 L 2.629 5.101 C 2.311 5.101 2.005 5.227 1.78 5.452 C 1.555 5.677 1.428 5.983 1.428 6.301 L 1.428 82.921 C 1.428 83.239 1.554 83.544 1.779 83.77 C 2.005 83.995 2.31 84.121 2.628 84.121 L 60.038 84.121 C 60.356 84.121 60.662 83.995 60.887 83.77 C 61.112 83.545 61.239 83.239 61.239 82.921 L 61.239 79.61 L 64.551 79.61 C 64.869 79.61 65.174 79.484 65.4 79.259 C 65.625 79.033 65.751 78.728 65.751 78.41 L 65.751 1.79 C 65.75 1.127 65.213 0.591 64.55 0.59 Z  M 58.838 81.72 L 3.828 81.72 L 3.828 7.503 L 58.838 7.503 L 58.838 81.723 L 58.838 81.72 Z  M 63.349 77.209 L 61.239 77.209 L 61.239 6.302 C 61.239 5.984 61.112 5.678 60.887 5.453 C 60.662 5.228 60.356 5.102 60.038 5.102 L 8.339 5.102 L 8.339 2.99 L 63.349 2.99 L 63.349 77.21 L 63.349 77.209 Z " fill="rgb(238,77,3)" vector-effect="non-scaling-stroke" stroke-width="0.937" stroke="rgb(238,77,3)" stroke-linejoin="miter" stroke-linecap="butt" stroke-miterlimit="4"/><path d=" M 55.099 52.282 C 54.988 52.298 54.887 52.352 54.811 52.434 C 52.181 55.186 46.051 61.76 43.239 64.71 L 39.471 61.381 C 39.341 61.266 39.159 61.229 38.995 61.284 C 38.83 61.339 38.707 61.477 38.672 61.648 C 38.637 61.818 38.696 61.994 38.826 62.109 L 42.951 65.749 C 43.147 65.923 43.446 65.909 43.626 65.719 C 46.329 62.89 52.826 55.914 55.516 53.101 C 55.661 52.952 55.696 52.727 55.601 52.542 C 55.507 52.356 55.305 52.252 55.099 52.282 Z  M 44.111 52.775 C 42.902 52.762 41.701 52.976 40.571 53.405 C 35.563 55.298 33.035 60.909 34.929 65.915 C 36.823 70.923 42.433 73.451 47.44 71.557 C 52.447 69.663 54.968 64.053 53.074 59.046 C 53.021 58.872 52.876 58.741 52.696 58.709 C 52.517 58.676 52.335 58.747 52.224 58.891 C 52.114 59.036 52.093 59.231 52.172 59.395 C 52.993 61.561 52.919 63.964 51.966 66.075 C 51.013 68.186 49.259 69.831 47.092 70.647 C 44.925 71.468 42.521 71.394 40.409 70.441 C 38.297 69.488 36.65 67.735 35.832 65.567 C 35.011 63.401 35.084 60.998 36.038 58.887 C 36.991 56.776 38.744 55.13 40.912 54.314 C 43.668 53.269 46.764 53.686 49.146 55.421 C 49.361 55.561 49.649 55.509 49.802 55.303 C 49.954 55.096 49.92 54.806 49.723 54.641 C 48.092 53.451 46.13 52.799 44.111 52.775 Z " fill="rgb(238,77,3)" vector-effect="non-scaling-stroke" stroke-width="1.406" stroke="rgb(238,77,3)" stroke-linejoin="miter" stroke-linecap="butt" stroke-miterlimit="4"/></g></svg>