<?xml version="1.0" standalone="no"?><!-- Generator: Gravit.io --><svg xmlns="http://www.w3.org/2000/svg" xmlns:xlink="http://www.w3.org/1999/xlink" style="isolation:isolate" viewBox="0 0 201.023 258.42" width="201.023" height="258.42"><g id="howitworks_icon_2"><g id="Group"><path d=" M 73.048 171.886 C 72.946 172.109 72.807 172.317 72.622 172.492 L 4.974 237.587 L 4.903 253.852 L 195.435 253.852 L 195.437 239.616 L 130.591 171.886 L 73.048 171.886 Z " fill="rgb(255,255,255)" vector-effect="non-scaling-stroke" stroke-width="1" stroke="rgb(93,210,106)" stroke-opacity="100" stroke-linejoin="miter" stroke-linecap="butt" stroke-miterlimit="4"/></g><g id="Group"><path d=" M 184.425 171.886 L 136.115 171.886 L 195.437 233.846 L 195.442 148.513 L 186.332 170.609" fill="rgb(255,255,255)" vector-effect="non-scaling-stroke" stroke-width="1" stroke="rgb(93,210,106)" stroke-opacity="100" stroke-linejoin="miter" stroke-linecap="butt" stroke-miterlimit="4"/></g><g id="Group"><path d=" M 12.939 159.138 L 12.939 125.229 L 5.136 131.103 L 5.126 137.842 C 5.164 137.914 5.206 137.988 5.235 138.069 L 12.939 159.138 Z " fill="rgb(255,255,255)" vector-effect="non-scaling-stroke" stroke-width="1" stroke="rgb(93,210,106)" stroke-opacity="100" stroke-linejoin="miter" stroke-linecap="butt" stroke-miterlimit="4"/></g><g id="Group"><path d=" M 15.34 171.886 C 14.424 172.075 13.254 171.616 12.888 170.618 L 5.108 149.34 L 4.982 232.042 L 67.497 171.886 L 15.34 171.886 C 15.209 171.911 15.34 171.886 15.34 171.886 Z " fill="rgb(255,255,255)" vector-effect="non-scaling-stroke" stroke-width="1" stroke="rgb(93,210,106)" stroke-opacity="100" stroke-linejoin="miter" stroke-linecap="butt" stroke-miterlimit="4"/></g><g id="Group"><path d=" M 186.43 137.546 C 186.448 137.68 186.448 137.816 186.43 137.949 L 186.43 159.911 L 195.414 138.12 C 195.426 138.101 195.435 138.086 195.443 138.066 L 195.443 130.314 L 186.43 123.561 L 186.43 137.546 Z " fill="rgb(255,255,255)" vector-effect="non-scaling-stroke" stroke-width="1" stroke="rgb(93,210,106)" stroke-opacity="100" stroke-linejoin="miter" stroke-linecap="butt" stroke-miterlimit="4"/></g><g id="Group"><path d=" M 91.229 84.433 L 109.676 84.412 L 100.537 77.589 L 91.229 84.433 Z " fill="rgb(255,255,255)" vector-effect="non-scaling-stroke" stroke-width="1" stroke="rgb(93,210,106)" stroke-opacity="100" stroke-linejoin="miter" stroke-linecap="butt" stroke-miterlimit="4"/></g><g id="Group"><line x1="186.43" y1="137.546" x2="186.43" y2="137.949" vector-effect="non-scaling-stroke" stroke-width="1" stroke="rgb(93,210,106)" stroke-opacity="100" stroke-linejoin="miter" stroke-linecap="butt" stroke-miterlimit="4"/></g><g id="Group"><path d=" M 198.498 127.618 C 198.825 127.826 198.57 127.675 198.498 127.618 C 198.549 127.651 198.498 127.618 198.498 127.618 Z " fill="rgb(255,255,255)" vector-effect="non-scaling-stroke" stroke-width="1" stroke="rgb(93,210,106)" stroke-opacity="100" stroke-linejoin="miter" stroke-linecap="butt" stroke-miterlimit="4"/></g><g id="Group"><g id="Group"><path d=" M 198.897 127.976 C 199.223 128.327 198.804 127.87 198.897 127.976 L 198.897 127.976 Z " fill="rgb(255,255,255)" vector-effect="non-scaling-stroke" stroke-width="1" stroke="rgb(93,210,106)" stroke-opacity="100" stroke-linejoin="miter" stroke-linecap="butt" stroke-miterlimit="4"/></g><g id="Group"><g id="Group"><g id="Group"><path d=" M 198.487 128.054 C 198.813 128.405 198.394 127.948 198.487 128.054 L 198.487 128.054 Z " fill="rgb(255,255,255)" vector-effect="non-scaling-stroke" stroke-width="1" stroke="rgb(93,210,106)" stroke-opacity="100" stroke-linejoin="miter" stroke-linecap="butt" stroke-miterlimit="4"/></g><g id="Group"><path d=" M 198.487 128.054 C 198.367 127.92 198.234 127.8 198.092 127.696 L 186.019 118.656 L 186.019 86.407 C 186.019 85.877 185.807 85.369 185.431 84.995 C 185.057 84.621 184.551 84.412 184.024 84.412 C 184.021 84.412 184.021 84.412 184.02 84.412 L 140.363 84.458 L 101.736 55.524 C 100.546 54.665 99.317 54.981 98.467 55.621 L 60.048 84.543 L 14.521 84.592 C 13.42 84.593 12.528 85.486 12.528 86.587 L 12.528 120.312 L 1.527 128.593 C 1.007 128.977 0.692 129.667 0.737 130.31 L 0.5 255.921 C 0.612 257.141 1.277 257.806 2.495 257.92 L 197.02 257.92 C 198.122 257.92 199.015 257.027 199.015 255.925 L 199.023 129.38 C 199.023 128.862 198.813 128.405 198.487 128.054 Z  M 100.173 59.338 L 133.719 84.466 L 115.927 84.485 L 101.845 73.97 C 100.644 73.111 99.322 73.265 98.339 74.033 L 84.075 84.518 L 66.694 84.537 L 100.173 59.338 Z  M 109.266 84.49 L 90.819 84.51 L 100.127 77.666 L 109.266 84.49 Z  M 16.519 88.581 L 182.03 88.404 L 182.03 167.974 L 16.519 167.974 L 16.519 88.581 Z  M 4.726 131.179 L 12.529 125.306 L 12.529 159.214 L 4.825 138.145 C 4.796 138.065 4.754 137.993 4.716 137.918 L 4.726 131.179 Z  M 4.698 149.417 L 12.478 170.697 C 12.843 171.695 13.866 171.991 14.93 171.965 L 67.087 171.965 L 4.572 232.12 L 4.698 149.417 L 4.698 149.417 Z  M 195.025 253.93 L 4.493 253.93 L 4.564 237.665 L 72.211 172.57 C 72.398 172.39 72.536 172.184 72.637 171.964 L 130.18 171.964 L 195.026 239.694 L 195.025 253.93 Z  M 195.027 233.924 L 135.705 171.964 L 184.015 171.964 C 185.237 171.959 185.564 171.569 185.922 170.692 L 195.032 148.597 L 195.027 233.924 Z  M 195.033 138.145 C 195.023 138.166 195.012 138.182 195.004 138.201 L 186.02 159.991 L 186.02 138.028 L 186.02 137.626 L 186.02 123.643 L 195.033 130.396 L 195.033 138.145 Z " fill="rgb(93,210,106)" vector-effect="non-scaling-stroke" stroke-width="1" stroke="rgb(93,210,106)" stroke-opacity="100" stroke-linejoin="miter" stroke-linecap="butt" stroke-miterlimit="4"/></g></g><g id="Group"><path d=" M 198.487 128.054 C 198.813 128.405 198.394 127.948 198.487 128.054 L 198.487 128.054 Z " fill="rgb(255,255,255)" vector-effect="non-scaling-stroke" stroke-width="1" stroke="rgb(93,210,106)" stroke-opacity="100" stroke-linejoin="miter" stroke-linecap="butt" stroke-miterlimit="4"/></g></g></g><path d=" M 100.17 161.408 C 82.293 161.408 67.749 146.864 67.749 128.987 C 67.749 111.11 82.293 96.567 100.17 96.567 C 118.047 96.567 132.591 111.11 132.591 128.987 C 132.591 146.864 118.048 161.408 100.17 161.408 Z  M 100.17 100.558 C 84.494 100.558 71.739 113.312 71.739 128.988 C 71.739 144.665 84.494 157.418 100.17 157.418 C 115.846 157.418 128.601 144.666 128.601 128.988 C 128.601 113.311 115.847 100.558 100.17 100.558 Z " fill="rgb(93,210,106)" vector-effect="non-scaling-stroke" stroke-width="1" stroke="rgb(93,210,106)" stroke-opacity="100" stroke-linejoin="miter" stroke-linecap="butt" stroke-miterlimit="4"/><path d=" M 100.395 146.077 L 100.395 142.087 C 103.537 142.087 104.769 141.513 105.25 141.027 C 105.894 140.384 105.921 139.133 105.911 137.144 L 105.909 136.571 L 105.912 135.899 C 105.925 133.957 105.899 132.734 105.277 132.106 C 104.799 131.628 103.566 131.055 100.395 131.055 L 100.395 127.064 C 104.145 127.064 106.595 127.773 108.107 129.294 C 109.932 131.13 109.917 133.566 109.903 135.924 L 109.9 136.57 L 109.902 137.126 C 109.912 139.516 109.923 141.989 108.077 143.844 C 106.561 145.368 104.12 146.077 100.395 146.077 Z " fill="rgb(93,210,106)" vector-effect="non-scaling-stroke" stroke-width="1" stroke="rgb(93,210,106)" stroke-opacity="100" stroke-linejoin="miter" stroke-linecap="butt" stroke-miterlimit="4"/><path d=" M 100.385 131.069 C 96.228 131.069 93.62 130.109 92.178 128.049 C 90.878 126.194 90.878 123.887 90.879 121.658 C 90.879 117.553 90.879 112.059 100.385 112.059 L 100.385 116.049 C 94.869 116.049 94.869 117.551 94.869 121.563 C 94.869 123.415 94.869 124.935 95.447 125.761 C 96.059 126.635 97.72 127.078 100.385 127.078 L 100.385 131.069 L 100.385 131.069 Z " fill="rgb(93,210,106)" vector-effect="non-scaling-stroke" stroke-width="1" stroke="rgb(93,210,106)" stroke-opacity="100" stroke-linejoin="miter" stroke-linecap="butt" stroke-miterlimit="4"/><rect x="98.404" y="109.181" width="3.99" height="40.154" transform="matrix(1,0,0,1,0,0)" fill="rgb(93,210,106)" vector-effect="non-scaling-stroke" stroke-width="1" stroke="rgb(93,210,106)" stroke-opacity="100" stroke-linejoin="miter" stroke-linecap="butt" stroke-miterlimit="4"/><path d=" M 109.828 121.557 L 105.838 121.557 C 105.838 116.042 104.336 116.042 100.325 116.042 L 100.325 112.052 C 104.334 112.052 109.828 112.052 109.828 121.557 Z " fill="rgb(93,210,106)" vector-effect="non-scaling-stroke" stroke-width="1" stroke="rgb(93,210,106)" stroke-opacity="100" stroke-linejoin="miter" stroke-linecap="butt" stroke-miterlimit="4"/><path d=" M 100.571 146.071 C 96.56 146.071 91.067 146.071 91.067 136.568 L 95.057 136.568 C 95.057 142.081 96.558 142.081 100.571 142.081 L 100.571 146.071 Z " fill="rgb(93,210,106)" vector-effect="non-scaling-stroke" stroke-width="1" stroke="rgb(93,210,106)" stroke-opacity="100" stroke-linejoin="miter" stroke-linecap="butt" stroke-miterlimit="4"/><g id="Group"><path d=" M 118.578 25.447 C 119.357 26.224 117.798 24.668 118.578 25.447 L 118.578 25.447 Z " fill="rgb(255,153,0)" vector-effect="non-scaling-stroke" stroke-width="1" stroke="rgb(76,195,90)" stroke-opacity="100" stroke-linejoin="miter" stroke-linecap="butt" stroke-miterlimit="4"/></g><g id="Group"><path d=" M 118.578 25.447 C 117.798 24.669 116.534 24.669 115.756 25.447 L 102.184 39.018 L 102.184 3.935 C 102.184 1.355 98.193 1.355 98.193 3.935 L 98.193 38.994 L 84.135 24.936 C 82.312 23.11 79.49 25.932 81.313 27.755 L 98.65 45.092 C 99.429 46.041 100.782 46.063 101.622 45.225 L 118.58 28.266 C 119.357 27.488 119.357 26.224 118.578 25.447 C 117.796 24.668 119.357 26.224 118.578 25.447 C 117.796 24.668 119.357 26.224 118.578 25.447 C 117.796 24.668 119.357 26.224 118.578 25.447 Z " fill="rgb(93,210,106)" vector-effect="non-scaling-stroke" stroke-width="1" stroke="rgb(93,210,106)" stroke-opacity="100" stroke-linejoin="miter" stroke-linecap="butt" stroke-miterlimit="4"/></g></g></svg>