<?xml version="1.0" standalone="no"?><!-- Generator: Gravit.io --><svg xmlns="http://www.w3.org/2000/svg" xmlns:xlink="http://www.w3.org/1999/xlink" style="isolation:isolate" viewBox="0 0 65.26 84.468" width="65.26" height="84.468"><g id="howitworks_icon_3"><path d=" M 9.369 25.719 C 9.369 25.056 9.906 24.519 10.569 24.519 L 50.179 24.519 C 50.842 24.519 51.379 25.056 51.379 25.719 C 51.379 26.382 50.842 26.919 50.179 26.919 L 10.569 26.919 C 9.906 26.919 9.369 26.382 9.369 25.719 Z  M 9.369 20.108 C 9.369 19.445 9.906 18.908 10.569 18.908 L 50.179 18.908 C 50.842 18.908 51.379 19.445 51.379 20.108 C 51.379 20.771 50.842 21.308 50.179 21.308 L 10.569 21.308 C 9.906 21.308 9.369 20.771 9.369 20.108 Z  M 9.369 31.198 C 9.369 30.535 9.906 29.998 10.569 29.998 L 50.179 29.998 C 50.842 29.998 51.379 30.535 51.379 31.198 C 51.379 31.861 50.842 32.398 50.179 32.398 L 10.569 32.398 C 9.906 32.398 9.369 31.861 9.369 31.198 Z  M 9.244 36.668 C 9.244 36.35 9.37 36.045 9.595 35.819 C 9.821 35.594 10.126 35.468 10.444 35.468 L 35.582 35.468 C 36.245 35.468 36.782 36.005 36.782 36.668 C 36.782 37.331 36.245 37.868 35.582 37.868 L 10.445 37.868 C 10.127 37.868 9.822 37.742 9.596 37.517 C 9.371 37.291 9.245 36.986 9.245 36.668 L 9.244 36.668 Z  M 8.967 51.818 C 8.967 51.5 9.093 51.195 9.318 50.969 C 9.544 50.744 9.849 50.618 10.167 50.618 L 25.731 50.618 C 26.394 50.618 26.931 51.155 26.931 51.818 C 26.931 52.481 26.394 53.018 25.731 53.018 L 10.167 53.018 C 9.849 53.018 9.544 52.892 9.318 52.667 C 9.093 52.441 8.967 52.136 8.967 51.818 Z  M 8.967 57.24 C 8.967 56.922 9.093 56.617 9.318 56.391 C 9.544 56.166 9.849 56.04 10.167 56.04 L 25.731 56.04 C 26.394 56.04 26.931 56.577 26.931 57.24 C 26.931 57.903 26.394 58.44 25.731 58.44 L 10.167 58.44 C 9.505 58.44 8.967 57.903 8.967 57.24 Z  M 8.967 62.72 C 8.967 62.402 9.093 62.096 9.318 61.871 C 9.543 61.646 9.849 61.519 10.167 61.519 L 20.639 61.519 C 21.302 61.519 21.839 62.056 21.839 62.719 C 21.839 63.382 21.302 63.919 20.639 63.919 L 10.167 63.919 C 9.849 63.919 9.544 63.793 9.318 63.568 C 9.093 63.342 8.967 63.037 8.967 62.719 L 8.967 62.72 Z  M 63.591 0.469 L 6.181 0.469 C 5.863 0.469 5.557 0.595 5.332 0.82 C 5.107 1.045 4.98 1.351 4.98 1.669 L 4.98 4.98 L 1.67 4.98 C 1.352 4.98 1.046 5.106 0.821 5.331 C 0.596 5.556 0.469 5.862 0.469 6.18 L 0.469 82.8 C 0.469 83.118 0.595 83.423 0.82 83.649 C 1.046 83.874 1.351 84 1.669 84 L 59.079 84 C 59.397 84 59.703 83.874 59.928 83.649 C 60.153 83.424 60.28 83.118 60.28 82.8 L 60.28 79.489 L 63.592 79.489 C 63.91 79.489 64.215 79.363 64.441 79.138 C 64.666 78.912 64.792 78.607 64.792 78.289 L 64.792 1.669 C 64.791 1.006 64.254 0.47 63.591 0.469 Z  M 57.879 81.599 L 2.869 81.599 L 2.869 7.382 L 57.879 7.382 L 57.879 81.602 L 57.879 81.599 Z  M 62.39 77.088 L 60.28 77.088 L 60.28 6.181 C 60.28 5.863 60.153 5.557 59.928 5.332 C 59.703 5.107 59.397 4.981 59.079 4.981 L 7.38 4.981 L 7.38 2.869 L 62.39 2.869 L 62.39 77.089 L 62.39 77.088 Z " fill="rgb(252,93,96)" vector-effect="non-scaling-stroke" stroke-width="0.937" stroke="rgb(252,93,96)" stroke-opacity="100" stroke-linejoin="miter" stroke-linecap="butt" stroke-miterlimit="4"/><path d=" M 54.14 52.161 C 54.029 52.177 53.928 52.231 53.852 52.313 C 51.222 55.065 45.092 61.639 42.28 64.589 L 38.512 61.26 C 38.382 61.145 38.2 61.108 38.036 61.163 C 37.871 61.218 37.748 61.356 37.713 61.527 C 37.678 61.697 37.737 61.873 37.867 61.988 L 41.992 65.628 C 42.188 65.802 42.487 65.788 42.667 65.598 C 45.37 62.769 51.867 55.793 54.557 52.98 C 54.702 52.831 54.737 52.606 54.642 52.421 C 54.548 52.235 54.346 52.131 54.14 52.161 Z  M 43.152 52.654 C 41.943 52.641 40.742 52.855 39.612 53.284 C 34.604 55.177 32.076 60.788 33.97 65.794 C 35.864 70.802 41.474 73.33 46.481 71.436 C 51.488 69.542 54.009 63.932 52.115 58.925 C 52.062 58.751 51.917 58.62 51.737 58.588 C 51.558 58.555 51.376 58.626 51.265 58.77 C 51.155 58.915 51.134 59.11 51.213 59.274 C 52.034 61.44 51.96 63.843 51.007 65.954 C 50.054 68.065 48.3 69.71 46.133 70.526 C 43.966 71.347 41.562 71.273 39.45 70.32 C 37.338 69.367 35.691 67.614 34.873 65.446 C 34.052 63.28 34.125 60.877 35.079 58.766 C 36.032 56.655 37.785 55.009 39.953 54.193 C 42.709 53.148 45.805 53.565 48.187 55.3 C 48.402 55.44 48.69 55.388 48.843 55.182 C 48.995 54.975 48.961 54.685 48.764 54.52 C 47.133 53.33 45.171 52.678 43.152 52.654 Z " fill="rgb(252,93,96)" vector-effect="non-scaling-stroke" stroke-width="1.406" stroke="rgb(252,93,96)" stroke-opacity="100" stroke-linejoin="miter" stroke-linecap="butt" stroke-miterlimit="4"/></g></svg>