<?xml version="1.0" standalone="no"?><!-- Generator: Gravit.io --><svg xmlns="http://www.w3.org/2000/svg" xmlns:xlink="http://www.w3.org/1999/xlink" style="isolation:isolate" viewBox="-98.91 -87 201.023 258.42" width="201.023" height="258.42"><g id="howitworks_icon_2"><g id="Group"><path d=" M -25.862 84.886 C -25.964 85.109 -26.103 85.317 -26.288 85.492 L -93.936 150.587 L -94.007 166.852 L 96.525 166.852 L 96.527 152.616 L 31.681 84.886 L -25.862 84.886 Z " fill="none" vector-effect="non-scaling-stroke" stroke-width="1" stroke="rgb(76,195,90)" stroke-linejoin="miter" stroke-linecap="butt" stroke-miterlimit="4"/></g><g id="Group"><path d=" M 85.515 84.886 L 37.205 84.886 L 96.527 146.846 L 96.532 61.513 L 87.422 83.609" fill="none" vector-effect="non-scaling-stroke" stroke-width="1" stroke="rgb(76,195,90)" stroke-linejoin="miter" stroke-linecap="butt" stroke-miterlimit="4"/></g><g id="Group"><path d=" M -85.971 72.138 L -85.971 38.229 L -93.774 44.103 L -93.784 50.842 C -93.746 50.914 -93.704 50.988 -93.675 51.069 L -85.971 72.138 Z " fill="none" vector-effect="non-scaling-stroke" stroke-width="1" stroke="rgb(76,195,90)" stroke-linejoin="miter" stroke-linecap="butt" stroke-miterlimit="4"/></g><g id="Group"><path d=" M -83.57 84.886 C -84.486 85.075 -85.656 84.616 -86.022 83.618 L -93.802 62.34 L -93.928 145.042 L -31.413 84.886 L -83.57 84.886 C -83.701 84.911 -83.57 84.886 -83.57 84.886 Z " fill="none" vector-effect="non-scaling-stroke" stroke-width="1" stroke="rgb(76,195,90)" stroke-linejoin="miter" stroke-linecap="butt" stroke-miterlimit="4"/></g><g id="Group"><path d=" M 87.52 50.546 C 87.538 50.68 87.538 50.816 87.52 50.949 L 87.52 72.911 L 96.504 51.12 C 96.516 51.101 96.525 51.086 96.533 51.066 L 96.533 43.314 L 87.52 36.561 L 87.52 50.546 Z " fill="none" vector-effect="non-scaling-stroke" stroke-width="1" stroke="rgb(76,195,90)" stroke-linejoin="miter" stroke-linecap="butt" stroke-miterlimit="4"/></g><g id="Group"><path d=" M -7.681 -2.567 L 10.766 -2.588 L 1.627 -9.411 L -7.681 -2.567 Z " fill="none" vector-effect="non-scaling-stroke" stroke-width="1" stroke="rgb(76,195,90)" stroke-linejoin="miter" stroke-linecap="butt" stroke-miterlimit="4"/></g><g id="Group"><line x1="87.52" y1="50.546" x2="87.52" y2="50.949" vector-effect="non-scaling-stroke" stroke-width="1" stroke="rgb(76,195,90)" stroke-linejoin="miter" stroke-linecap="butt" stroke-miterlimit="4"/></g><g id="Group"><path d=" M 99.588 40.618 C 99.915 40.826 99.66 40.675 99.588 40.618 C 99.639 40.651 99.588 40.618 99.588 40.618 Z " fill="rgb(0,0,0)" vector-effect="non-scaling-stroke" stroke-width="1" stroke="rgb(76,195,90)" stroke-linejoin="miter" stroke-linecap="butt" stroke-miterlimit="4"/></g><g id="Group"><g id="Group"><path d=" M 99.987 40.976 C 100.313 41.327 99.894 40.87 99.987 40.976 L 99.987 40.976 Z " fill="rgb(0,0,0)" vector-effect="non-scaling-stroke" stroke-width="1" stroke="rgb(76,195,90)" stroke-linejoin="miter" stroke-linecap="butt" stroke-miterlimit="4"/></g><g id="Group"><g id="Group"><g id="Group"><path d=" M 99.577 41.054 C 99.903 41.405 99.484 40.948 99.577 41.054 L 99.577 41.054 Z " fill="rgb(0,0,0)" vector-effect="non-scaling-stroke" stroke-width="1" stroke="rgb(76,195,90)" stroke-linejoin="miter" stroke-linecap="butt" stroke-miterlimit="4"/></g><g id="Group"><path d=" M 99.577 41.054 C 99.457 40.92 99.324 40.8 99.182 40.696 L 87.109 31.656 L 87.109 -0.593 C 87.109 -1.123 86.897 -1.631 86.521 -2.005 C 86.147 -2.379 85.641 -2.588 85.114 -2.588 C 85.111 -2.588 85.111 -2.588 85.11 -2.588 L 41.453 -2.542 L 2.826 -31.476 C 1.636 -32.335 0.407 -32.019 -0.443 -31.379 L -38.862 -2.457 L -84.389 -2.408 C -85.49 -2.407 -86.382 -1.514 -86.382 -0.413 L -86.382 33.312 L -97.383 41.593 C -97.903 41.977 -98.218 42.667 -98.173 43.31 L -98.41 168.921 C -98.298 170.141 -97.633 170.806 -96.415 170.92 L 98.11 170.92 C 99.212 170.92 100.105 170.027 100.105 168.925 L 100.113 42.38 C 100.113 41.862 99.903 41.405 99.577 41.054 Z  M 1.263 -27.662 L 34.809 -2.534 L 17.017 -2.515 L 2.935 -13.03 C 1.734 -13.889 0.412 -13.735 -0.571 -12.967 L -14.835 -2.482 L -32.216 -2.463 L 1.263 -27.662 Z  M 10.356 -2.51 L -8.091 -2.49 L 1.217 -9.334 L 10.356 -2.51 Z  M -82.391 1.581 L 83.12 1.404 L 83.12 80.974 L -82.391 80.974 L -82.391 1.581 Z  M -94.184 44.179 L -86.381 38.306 L -86.381 72.214 L -94.085 51.145 C -94.114 51.065 -94.156 50.993 -94.194 50.918 L -94.184 44.179 Z  M -94.212 62.417 L -86.432 83.697 C -86.067 84.695 -85.044 84.991 -83.98 84.965 L -31.823 84.965 L -94.338 145.12 L -94.212 62.417 L -94.212 62.417 Z  M 96.115 166.93 L -94.417 166.93 L -94.346 150.665 L -26.699 85.57 C -26.512 85.39 -26.374 85.184 -26.273 84.964 L 31.27 84.964 L 96.116 152.694 L 96.115 166.93 Z  M 96.117 146.924 L 36.795 84.964 L 85.105 84.964 C 86.327 84.959 86.654 84.569 87.012 83.692 L 96.122 61.597 L 96.117 146.924 Z  M 96.123 51.145 C 96.113 51.166 96.102 51.182 96.094 51.201 L 87.11 72.991 L 87.11 51.028 L 87.11 50.626 L 87.11 36.643 L 96.123 43.396 L 96.123 51.145 Z " fill="rgb(255,153,0)" vector-effect="non-scaling-stroke" stroke-width="1" stroke="rgb(255,153,0)" stroke-linejoin="miter" stroke-linecap="butt" stroke-miterlimit="4"/></g></g><g id="Group"><path d=" M 99.577 41.054 C 99.903 41.405 99.484 40.948 99.577 41.054 L 99.577 41.054 Z " fill="rgb(0,0,0)" vector-effect="non-scaling-stroke" stroke-width="1" stroke="rgb(76,195,90)" stroke-linejoin="miter" stroke-linecap="butt" stroke-miterlimit="4"/></g></g></g><path d=" M 1.26 74.408 C -16.617 74.408 -31.161 59.864 -31.161 41.987 C -31.161 24.11 -16.617 9.567 1.26 9.567 C 19.137 9.567 33.681 24.11 33.681 41.987 C 33.681 59.864 19.138 74.408 1.26 74.408 Z  M 1.26 13.558 C -14.416 13.558 -27.171 26.312 -27.171 41.988 C -27.171 57.665 -14.416 70.418 1.26 70.418 C 16.936 70.418 29.691 57.666 29.691 41.988 C 29.691 26.311 16.937 13.558 1.26 13.558 Z " fill="rgb(255,153,0)" vector-effect="non-scaling-stroke" stroke-width="1" stroke="rgb(255,153,0)" stroke-linejoin="miter" stroke-linecap="butt" stroke-miterlimit="4"/><path d=" M 1.485 59.077 L 1.485 55.087 C 4.627 55.087 5.859 54.513 6.34 54.027 C 6.984 53.384 7.011 52.133 7.001 50.144 L 6.999 49.571 L 7.002 48.899 C 7.015 46.957 6.989 45.734 6.367 45.106 C 5.889 44.628 4.656 44.055 1.485 44.055 L 1.485 40.064 C 5.235 40.064 7.685 40.773 9.197 42.294 C 11.022 44.13 11.007 46.566 10.993 48.924 L 10.99 49.57 L 10.992 50.126 C 11.002 52.516 11.013 54.989 9.167 56.844 C 7.651 58.368 5.21 59.077 1.485 59.077 Z " fill="rgb(255,153,0)" vector-effect="non-scaling-stroke" stroke-width="1" stroke="rgb(76,195,90)" stroke-linejoin="miter" stroke-linecap="butt" stroke-miterlimit="4"/><path d=" M 1.475 44.069 C -2.682 44.069 -5.29 43.109 -6.732 41.049 C -8.032 39.194 -8.032 36.887 -8.031 34.658 C -8.031 30.553 -8.031 25.059 1.475 25.059 L 1.475 29.049 C -4.041 29.049 -4.041 30.551 -4.041 34.563 C -4.041 36.415 -4.041 37.935 -3.463 38.761 C -2.851 39.635 -1.19 40.078 1.475 40.078 L 1.475 44.069 L 1.475 44.069 Z " fill="rgb(255,153,0)" vector-effect="non-scaling-stroke" stroke-width="1" stroke="rgb(76,195,90)" stroke-linejoin="miter" stroke-linecap="butt" stroke-miterlimit="4"/><rect x="-0.506" y="22.181" width="3.99" height="40.154" transform="matrix(1,0,0,1,0,0)" fill="rgb(255,153,0)" vector-effect="non-scaling-stroke" stroke-width="1" stroke="rgb(76,195,90)" stroke-linejoin="miter" stroke-linecap="butt" stroke-miterlimit="4"/><path d=" M 10.918 34.557 L 6.928 34.557 C 6.928 29.042 5.426 29.042 1.415 29.042 L 1.415 25.052 C 5.424 25.052 10.918 25.052 10.918 34.557 Z " fill="rgb(255,153,0)" vector-effect="non-scaling-stroke" stroke-width="1" stroke="rgb(76,195,90)" stroke-linejoin="miter" stroke-linecap="butt" stroke-miterlimit="4"/><path d=" M 1.661 59.071 C -2.35 59.071 -7.843 59.071 -7.843 49.568 L -3.853 49.568 C -3.853 55.081 -2.352 55.081 1.661 55.081 L 1.661 59.071 Z " fill="rgb(255,153,0)" vector-effect="non-scaling-stroke" stroke-width="1" stroke="rgb(76,195,90)" stroke-linejoin="miter" stroke-linecap="butt" stroke-miterlimit="4"/><g id="Group"><path d=" M 19.668 -61.553 C 20.447 -60.776 18.888 -62.332 19.668 -61.553 L 19.668 -61.553 Z " fill="rgb(255,153,0)" vector-effect="non-scaling-stroke" stroke-width="1" stroke="rgb(76,195,90)" stroke-linejoin="miter" stroke-linecap="butt" stroke-miterlimit="4"/></g><g id="Group"><path d=" M 19.668 -61.553 C 18.888 -62.331 17.624 -62.331 16.846 -61.553 L 3.274 -47.982 L 3.274 -83.065 C 3.274 -85.645 -0.717 -85.645 -0.717 -83.065 L -0.717 -48.006 L -14.775 -62.064 C -16.598 -63.89 -19.42 -61.068 -17.597 -59.245 L -0.26 -41.908 C 0.519 -40.959 1.872 -40.937 2.712 -41.775 L 19.67 -58.734 C 20.447 -59.512 20.447 -60.776 19.668 -61.553 C 18.886 -62.332 20.447 -60.776 19.668 -61.553 C 18.886 -62.332 20.447 -60.776 19.668 -61.553 C 18.886 -62.332 20.447 -60.776 19.668 -61.553 Z " fill="rgb(255,153,0)" vector-effect="non-scaling-stroke" stroke-width="1" stroke="rgb(76,195,90)" stroke-linejoin="miter" stroke-linecap="butt" stroke-miterlimit="4"/></g></g></svg>